<svg width="54.537109" height="21.933105" viewBox="0 0 54.5371 21.9331" fill="none" xmlns="http://www.w3.org/2000/svg" xmlns:xlink="http://www.w3.org/1999/xlink">
	<desc>
			Created with Pixso.
	</desc>
	<defs/>
	<path id="Pay" d="M10.71 0.34C10.71 1.25 10.33 2.15 9.79 2.81C9.19 3.53 8.18 4.07 7.38 4.07C7.29 4.07 7.2 4.06 7.15 4.05C7.14 4 7.11 3.86 7.11 3.72C7.11 2.81 7.59 1.9 8.08 1.33C8.72 0.58 9.8 0.03 10.67 0C10.7 0.1 10.71 0.22 10.71 0.34ZM18.77 17.47L18.77 1.26L25.31 1.26C28.54 1.26 30.76 3.48 30.76 6.74C30.76 9.96 28.46 12.16 25.19 12.16L21.67 12.16L21.67 17.47L18.77 17.47ZM24.55 3.69L21.67 3.69L21.67 9.75L24.53 9.75C26.6 9.75 27.81 8.68 27.81 6.74C27.81 4.76 26.63 3.69 24.55 3.69ZM7.29 5.07C7.99 5.07 9.07 4.26 10.41 4.26C10.91 4.26 12.72 4.31 13.9 6.03C13.8 6.1 12 7.12 12 9.38C12 12.01 14.29 12.94 14.36 12.97C14.35 13.02 13.99 14.24 13.16 15.48C12.4 16.56 11.61 17.65 10.41 17.65C9.2 17.65 8.89 16.95 7.52 16.95C6.16 16.95 5.68 17.67 4.59 17.67C3.49 17.67 2.71 16.66 1.85 15.44C0.83 13.97 -0.01 11.71 -0.01 9.56C-0.01 6.14 2.23 4.31 4.43 4.31C5.59 4.31 6.56 5.07 7.29 5.07ZM39.01 15.79C38.33 16.98 36.98 17.67 35.37 17.67C33 17.67 31.31 16.23 31.31 13.99C31.31 11.76 32.98 10.48 35.97 10.3L39.13 10.11L39.13 9.08C39.13 7.88 38.33 7.2 36.82 7.2C35.54 7.2 34.66 7.65 34.41 8.49L31.78 8.49C32 6.32 34.04 4.94 36.96 4.94C40.11 4.94 41.89 6.47 41.89 9.08L41.89 17.47L39.2 17.47L39.2 15.79L39.01 15.79ZM50.1 17.86C49.05 20.92 47.74 21.93 44.99 21.93C44.82 21.93 44.07 21.92 43.89 21.88L43.89 19.6C44.04 19.64 44.46 19.65 44.65 19.65C45.83 19.65 46.49 19.2 46.85 18.06L47 17.53L42.61 5.18L45.66 5.18L48.54 14.77L48.73 14.77L51.59 5.18L54.53 5.18L50.1 17.86ZM34.07 13.83C34.07 14.86 34.96 15.48 36.19 15.48C37.88 15.48 39.13 14.39 39.13 12.97L39.13 11.99L36.36 12.17C34.8 12.27 34.07 12.83 34.07 13.83Z" fill="#FFFFFF" fill-opacity="1.000000" fill-rule="evenodd"/>
</svg>
