<svg width="19.000000" height="20.000000" viewBox="0 0 19 20" fill="none" xmlns="http://www.w3.org/2000/svg" xmlns:xlink="http://www.w3.org/1999/xlink">
	<desc>
			Created with Pixso.
	</desc>
	<defs/>
	<path id="Vector" d="M1 20C0.73 20 0.48 19.89 0.29 19.7C0.1 19.51 0 19.26 0 19L0 1C0 0.73 0.1 0.48 0.29 0.29C0.48 0.1 0.73 0 1 0L15 0C15.26 0 15.51 0.1 15.7 0.29C15.89 0.48 16 0.73 16 1L16 4L14 4L14 2L2 2L2 18L14 18L14 16L16 16L16 19C16 19.26 15.89 19.51 15.7 19.7C15.51 19.89 15.26 20 15 20L1 20ZM14 14L14 11L7 11L7 9L14 9L14 6L19 10L14 14Z" fill="#333333" fill-opacity="1.000000" fill-rule="nonzero"/>
</svg>
