<svg width="61.583984" height="24.000000" viewBox="0 0 61.584 24" fill="none" xmlns="http://www.w3.org/2000/svg" xmlns:xlink="http://www.w3.org/1999/xlink">
	<desc>
			Created with Pixso.
	</desc>
	<defs/>
	<path id="Letter p 3" d="M28.74 11.67L28.74 18.74L26.48 18.74L26.48 1.27L32.47 1.27C33.99 1.27 35.28 1.77 36.34 2.78C37.43 3.78 37.97 5.01 37.97 6.46C37.97 7.95 37.43 9.18 36.34 10.17C35.3 11.16 34 11.66 32.47 11.66L28.74 11.66L28.74 11.67ZM28.74 3.42L28.74 9.52L32.52 9.52C33.41 9.52 34.16 9.21 34.75 8.61C35.35 8.02 35.66 7.29 35.66 6.47C35.66 5.67 35.35 4.95 34.75 4.36C34.16 3.74 33.42 3.43 32.52 3.43L28.74 3.43L28.74 3.42Z" fill="#FFFFFF" fill-opacity="1.000000" fill-rule="nonzero"/>
	<path id="Letter a 3" d="M43.88 6.39C45.55 6.39 46.87 6.84 47.84 7.73C48.8 8.61 49.28 9.83 49.28 11.38L49.28 18.74L47.13 18.74L47.13 17.08L47.04 17.08C46.1 18.45 44.86 19.13 43.3 19.13C41.97 19.13 40.86 18.74 39.97 17.96C39.08 17.18 38.63 16.21 38.63 15.04C38.63 13.8 39.1 12.81 40.04 12.09C40.98 11.35 42.24 10.99 43.81 10.99C45.15 10.99 46.26 11.23 47.12 11.73L47.12 11.21C47.12 10.43 46.81 9.77 46.19 9.22C45.56 8.67 44.83 8.4 44 8.4C42.74 8.4 41.74 8.93 41.01 10L39.02 8.76C40.11 7.18 41.74 6.39 43.88 6.39ZM40.96 15.07C40.96 15.66 41.21 16.15 41.71 16.53C42.21 16.92 42.8 17.12 43.47 17.12C44.42 17.12 45.27 16.77 46.01 16.07C46.75 15.36 47.13 14.54 47.13 13.6C46.42 13.05 45.45 12.77 44.19 12.77C43.27 12.77 42.5 12.99 41.89 13.42C41.26 13.88 40.96 14.43 40.96 15.07Z" fill="#FFFFFF" fill-opacity="1.000000" fill-rule="nonzero"/>
	<path id="Letter y 3" d="M61.58 6.78L54.04 24L51.71 24L54.51 17.97L49.54 6.78L52 6.78L55.58 15.36L55.63 15.36L59.12 6.78L61.58 6.78Z" fill="#FFFFFF" fill-opacity="1.000000" fill-rule="nonzero"/>
	<path id="Blue 500" d="M19.74 10.24C19.74 9.51 19.68 8.81 19.56 8.13L10.08 8.13L10.08 11.99L15.54 12C15.32 13.28 14.6 14.37 13.51 15.1L13.51 17.61L16.76 17.61C18.66 15.86 19.74 13.29 19.74 10.24Z" fill="#4285F4" fill-opacity="1.000000" fill-rule="nonzero"/>
	<path id="Green 500 1" d="M13.51 15.1C12.61 15.71 11.44 16.06 10.08 16.06C7.45 16.06 5.22 14.3 4.42 11.93L1.07 11.93L1.07 14.51C2.73 17.78 6.14 20.03 10.08 20.03C12.81 20.03 15.1 19.14 16.76 17.61L13.51 15.1Z" fill="#34A853" fill-opacity="1.000000" fill-rule="nonzero"/>
	<path id="Yellow 500 1" d="M4.1 10.01C4.1 9.35 4.22 8.7 4.42 8.1L4.42 5.51L1.07 5.51C0.38 6.87 0 8.39 0 10.01C0 11.63 0.38 13.16 1.07 14.51L4.42 11.93C4.22 11.32 4.1 10.68 4.1 10.01Z" fill="#FABB05" fill-opacity="1.000000" fill-rule="nonzero"/>
	<path id="Red 500" d="M10.08 3.96C11.57 3.96 12.9 4.47 13.95 5.46L16.83 2.61C15.08 0.99 12.8 0 10.08 0C6.14 0 2.73 2.24 1.07 5.51L4.42 8.1C5.22 5.72 7.45 3.96 10.08 3.96Z" fill="#E94235" fill-opacity="1.000000" fill-rule="nonzero"/>
</svg>
