<svg width="10.666626" height="13.333008" viewBox="0 0 10.6666 13.333" fill="none" xmlns="http://www.w3.org/2000/svg" xmlns:xlink="http://www.w3.org/1999/xlink">
	<desc>
			Created with Pixso.
	</desc>
	<defs/>
	<path id="Vector" d="M0.66 13.33C0.48 13.33 0.32 13.26 0.19 13.13C0.07 13.01 0 12.84 0 12.66L0 0.66C0 0.49 0.07 0.32 0.19 0.19C0.32 0.07 0.48 0 0.66 0L10 0C10.17 0 10.34 0.07 10.47 0.19C10.59 0.32 10.66 0.49 10.66 0.66L10.66 12.66C10.66 12.84 10.59 13.01 10.47 13.13C10.34 13.26 10.17 13.33 10 13.33L0.66 13.33ZM7.33 9.33L10.66 6.66L7.33 4L7.33 6L3.33 6L3.33 7.33L7.33 7.33L7.33 9.33Z" fill="#FFFFFF" fill-opacity="1.000000" fill-rule="nonzero"/>
</svg>
