<svg width="19.003906" height="20.003906" viewBox="0 0 19.0039 20.0039" fill="none" xmlns="http://www.w3.org/2000/svg" xmlns:xlink="http://www.w3.org/1999/xlink">
	<desc>
			Created with Pixso.
	</desc>
	<defs/>
	<path id="Vector" d="M7.45 0.21C8.8 -0.08 10.19 -0.08 11.54 0.21C11.63 0.8 11.85 1.36 12.19 1.86C12.53 2.35 12.98 2.77 13.5 3.07C14.02 3.37 14.6 3.55 15.2 3.59C15.79 3.64 16.4 3.55 16.95 3.33C17.87 4.36 18.57 5.56 19 6.87C18.53 7.25 18.15 7.72 17.89 8.26C17.63 8.81 17.5 9.4 17.5 10C17.5 11.26 18.08 12.39 19 13.12C18.57 14.43 17.87 15.64 16.95 16.66C16.39 16.45 15.79 16.36 15.2 16.4C14.6 16.45 14.02 16.63 13.5 16.92C12.98 17.23 12.53 17.64 12.19 18.13C11.86 18.63 11.63 19.19 11.54 19.79C10.19 20.07 8.8 20.07 7.45 19.79C7.36 19.2 7.14 18.63 6.8 18.13C6.46 17.64 6.02 17.22 5.5 16.92C4.98 16.62 4.4 16.44 3.8 16.4C3.2 16.35 2.6 16.45 2.04 16.66C1.12 15.64 0.43 14.43 0 13.12C0.47 12.75 0.84 12.27 1.1 11.73C1.36 11.19 1.5 10.6 1.5 10C1.5 9.4 1.36 8.8 1.1 8.26C0.84 7.72 0.46 7.25 0 6.87C0.43 5.56 1.12 4.36 2.04 3.33C2.6 3.55 3.2 3.64 3.8 3.59C4.4 3.55 4.98 3.37 5.5 3.07C6.02 2.77 6.46 2.36 6.8 1.86C7.14 1.37 7.36 0.8 7.45 0.21L7.45 0.21ZM9.5 13C10.29 13 11.06 12.68 11.62 12.12C12.18 11.56 12.5 10.79 12.5 10C12.5 9.2 12.18 8.44 11.62 7.88C11.06 7.31 10.29 7 9.5 7C8.7 7 7.94 7.31 7.38 7.88C6.81 8.44 6.5 9.2 6.5 10C6.5 10.79 6.81 11.56 7.38 12.12C7.94 12.68 8.7 13 9.5 13Z" fill="#1749B3" fill-opacity="1.000000" fill-rule="nonzero"/>
</svg>
