<svg width="20.000000" height="18.000000" viewBox="0 0 20 18" fill="none" xmlns="http://www.w3.org/2000/svg" xmlns:xlink="http://www.w3.org/1999/xlink">
	<desc>
			Created with Pixso.
	</desc>
	<defs/>
	<path id="Vector" d="M0 6L19 6C19.26 6 19.51 6.1 19.7 6.29C19.89 6.48 20 6.73 20 7L20 17C20 17.26 19.89 17.51 19.7 17.7C19.51 17.89 19.26 18 19 18L1 18C0.73 18 0.48 17.89 0.29 17.7C0.1 17.51 0 17.26 0 17L0 6ZM1 0L16 0L16 4L0 4L0 1C0 0.73 0.1 0.48 0.29 0.29C0.48 0.1 0.73 0 1 0ZM13 11L13 13L16 13L16 11L13 11Z" fill="#9C99AD" fill-opacity="1.000000" fill-rule="nonzero"/>
</svg>
